<svg width="248" height="175" viewBox="0 0 248 175" fill="none" xmlns="http://www.w3.org/2000/svg">
<path d="M200 0H49.9997C43.0961 0 37.4996 5.59646 37.4996 12.5V162.5C37.4996 169.404 43.0961 175 49.9997 175H200C206.904 175 212.5 169.404 212.5 162.5V12.5C212.5 5.59646 206.904 0 200 0Z" fill="#2D2D2D"/>
<g filter="url(#filter0_d_237_339)">
<path d="M64.9986 67.5002H233.749C235.407 67.5002 236.996 68.1587 238.168 69.3308C239.341 70.5029 239.999 72.0926 239.999 73.7502V105C239.999 106.658 239.341 108.248 238.168 109.42C236.996 110.592 235.407 111.25 233.749 111.25H64.9986C63.3409 111.25 61.7512 110.592 60.5791 109.42C59.407 108.248 58.7485 106.658 58.7485 105V73.7502C58.7485 72.0926 59.407 70.5029 60.5791 69.3308C61.7512 68.1587 63.3409 67.5002 64.9986 67.5002V67.5002Z" fill="#434343"/>
</g>
<path d="M157.499 77.5005H124.999C122.928 77.5005 121.249 79.1794 121.249 81.2505C121.249 83.3216 122.928 85.0005 124.999 85.0005H157.499C159.57 85.0005 161.249 83.3216 161.249 81.2505C161.249 79.1794 159.57 77.5005 157.499 77.5005Z" fill="#D0D5DD"/>
<path d="M179.999 93.7509H124.999C122.928 93.7509 121.249 95.4298 121.249 97.5009C121.249 99.572 122.928 101.251 124.999 101.251H179.999C182.07 101.251 183.749 99.572 183.749 97.5009C183.749 95.4298 182.07 93.7509 179.999 93.7509Z" fill="#EAECF0"/>
<path d="M96.8742 101.251C103.433 101.251 108.749 95.934 108.749 89.3756C108.749 82.8172 103.433 77.5005 96.8742 77.5005C90.3158 77.5005 84.9992 82.8172 84.9992 89.3756C84.9992 95.934 90.3158 101.251 96.8742 101.251Z" fill="white"/>
<path d="M92.2389 90.7506H91.4235L93.2555 85.6597H94.143L95.975 90.7506H95.1597L93.7204 86.5845H93.6806L92.2389 90.7506ZM92.3756 88.757H95.0205V89.4033H92.3756V88.757ZM96.7102 90.7506V85.6597H98.5745C98.9358 85.6597 99.2349 85.7194 99.4719 85.8387C99.7089 85.9564 99.8862 86.1163 100.004 86.3185C100.122 86.519 100.18 86.7452 100.18 86.9971C100.18 87.2092 100.141 87.3882 100.064 87.534C99.9856 87.6782 99.8812 87.7942 99.7503 87.882C99.621 87.9682 99.4785 88.0312 99.3228 88.071V88.1207C99.4918 88.129 99.6567 88.1837 99.8174 88.2847C99.9798 88.3842 100.114 88.5259 100.22 88.7098C100.326 88.8938 100.379 89.1175 100.379 89.381C100.379 89.6412 100.318 89.8748 100.195 90.082C100.074 90.2875 99.887 90.4507 99.6335 90.5717C99.3799 90.691 99.0559 90.7506 98.6615 90.7506H96.7102ZM97.4783 90.0919H98.587C98.9549 90.0919 99.2184 90.0207 99.3774 89.8781C99.5365 89.7356 99.6161 89.5575 99.6161 89.3437C99.6161 89.1829 99.5755 89.0354 99.4943 88.9012C99.4131 88.767 99.2971 88.6601 99.1463 88.5805C98.9971 88.501 98.8198 88.4612 98.6143 88.4612H97.4783V90.0919ZM97.4783 87.8622H98.5074C98.6798 87.8622 98.8347 87.829 98.9723 87.7627C99.1115 87.6964 99.2217 87.6036 99.3029 87.4843C99.3857 87.3633 99.4272 87.2208 99.4272 87.0568C99.4272 86.8463 99.3534 86.6698 99.2059 86.5273C99.0584 86.3848 98.8322 86.3135 98.5273 86.3135H97.4783V87.8622Z" fill="white"/>
<g filter="url(#filter1_d_237_339)">
<path d="M11.25 121.25H180C181.658 121.25 183.248 121.909 184.42 123.081C185.592 124.253 186.25 125.843 186.25 127.5V158.75C186.25 160.408 185.592 161.998 184.42 163.17C183.248 164.342 181.658 165 180 165H11.25C9.59241 165 8.00269 164.342 6.83059 163.17C5.65848 161.998 5 160.408 5 158.75V127.5C5 125.843 5.65848 124.253 6.83059 123.081C8.00269 121.909 9.59241 121.25 11.25 121.25V121.25Z" fill="#434343"/>
</g>
<path d="M103.75 131.251H71.2501C69.1791 131.251 67.5001 132.93 67.5001 135.001C67.5001 137.072 69.1791 138.751 71.2501 138.751H103.75C105.821 138.751 107.5 137.072 107.5 135.001C107.5 132.93 105.821 131.251 103.75 131.251Z" fill="#D0D5DD"/>
<path d="M126.25 147.501H71.2501C69.1791 147.501 67.5001 149.18 67.5001 151.251C67.5001 153.322 69.1791 155.001 71.2501 155.001H126.25C128.321 155.001 130 153.322 130 151.251C130 149.18 128.321 147.501 126.25 147.501Z" fill="#EAECF0"/>
<path d="M26.8756 155.002C33.434 155.002 38.7507 149.685 38.7507 143.127C38.7507 136.568 33.434 131.252 26.8756 131.252C20.3172 131.252 15.0006 136.568 15.0006 143.127C15.0006 149.685 20.3172 155.002 26.8756 155.002Z" fill="white"/>
<path d="M24.5866 140.748C24.5601 140.513 24.4507 140.33 24.2585 140.201C24.0662 140.07 23.8243 140.005 23.5326 140.005C23.3238 140.005 23.1432 140.038 22.9907 140.104C22.8383 140.169 22.7198 140.258 22.6353 140.373C22.5524 140.485 22.511 140.614 22.511 140.758C22.511 140.879 22.5391 140.983 22.5955 141.071C22.6535 141.159 22.7289 141.233 22.8217 141.292C22.9162 141.35 23.0172 141.399 23.125 141.439C23.2327 141.477 23.3363 141.509 23.4357 141.534L23.9328 141.663C24.0953 141.703 24.2618 141.756 24.4325 141.824C24.6032 141.892 24.7614 141.982 24.9073 142.093C25.0531 142.204 25.1708 142.341 25.2603 142.506C25.3514 142.67 25.397 142.866 25.397 143.095C25.397 143.383 25.3224 143.639 25.1733 143.863C25.0258 144.086 24.8112 144.263 24.5294 144.392C24.2494 144.522 23.9105 144.586 23.5127 144.586C23.1316 144.586 22.8018 144.526 22.5234 144.405C22.245 144.284 22.0271 144.112 21.8696 143.89C21.7122 143.666 21.6252 143.401 21.6086 143.095H22.3792C22.3941 143.279 22.4538 143.432 22.5582 143.555C22.6643 143.676 22.7993 143.766 22.9634 143.825C23.1291 143.883 23.3106 143.912 23.5078 143.912C23.7249 143.912 23.9179 143.879 24.087 143.811C24.2577 143.741 24.3919 143.645 24.4897 143.522C24.5874 143.398 24.6363 143.253 24.6363 143.087C24.6363 142.936 24.5932 142.813 24.5071 142.717C24.4225 142.621 24.3074 142.541 24.1615 142.478C24.0174 142.415 23.8541 142.36 23.6718 142.312L23.0703 142.148C22.6626 142.037 22.3394 141.873 22.1008 141.658C21.8638 141.442 21.7453 141.157 21.7453 140.803C21.7453 140.509 21.8249 140.253 21.984 140.035C22.1431 139.816 22.3585 139.646 22.6303 139.525C22.9021 139.402 23.2086 139.341 23.55 139.341C23.8947 139.341 24.1988 139.402 24.4623 139.523C24.7275 139.644 24.9363 139.81 25.0887 140.022C25.2412 140.233 25.3207 140.475 25.3274 140.748H24.5866ZM29.0915 140.748C29.065 140.513 28.9556 140.33 28.7634 140.201C28.5711 140.07 28.3292 140.005 28.0375 140.005C27.8287 140.005 27.6481 140.038 27.4956 140.104C27.3431 140.169 27.2247 140.258 27.1401 140.373C27.0573 140.485 27.0159 140.614 27.0159 140.758C27.0159 140.879 27.044 140.983 27.1004 141.071C27.1584 141.159 27.2338 141.233 27.3266 141.292C27.421 141.35 27.5221 141.399 27.6298 141.439C27.7376 141.477 27.8411 141.509 27.9406 141.534L28.4377 141.663C28.6001 141.703 28.7667 141.756 28.9374 141.824C29.1081 141.892 29.2663 141.982 29.4122 142.093C29.558 142.204 29.6757 142.341 29.7651 142.506C29.8563 142.67 29.9019 142.866 29.9019 143.095C29.9019 143.383 29.8273 143.639 29.6781 143.863C29.5306 144.086 29.316 144.263 29.0343 144.392C28.7543 144.522 28.4154 144.586 28.0176 144.586C27.6365 144.586 27.3067 144.526 27.0283 144.405C26.7499 144.284 26.532 144.112 26.3745 143.89C26.2171 143.666 26.1301 143.401 26.1135 143.095H26.8841C26.899 143.279 26.9587 143.432 27.0631 143.555C27.1691 143.676 27.3042 143.766 27.4683 143.825C27.634 143.883 27.8155 143.912 28.0127 143.912C28.2297 143.912 28.4228 143.879 28.5918 143.811C28.7625 143.741 28.8968 143.645 28.9945 143.522C29.0923 143.398 29.1412 143.253 29.1412 143.087C29.1412 142.936 29.0981 142.813 29.0119 142.717C28.9274 142.621 28.8123 142.541 28.6664 142.478C28.5222 142.415 28.359 142.36 28.1767 142.312L27.5752 142.148C27.1675 142.037 26.8443 141.873 26.6057 141.658C26.3687 141.442 26.2502 141.157 26.2502 140.803C26.2502 140.509 26.3298 140.253 26.4889 140.035C26.648 139.816 26.8634 139.646 27.1352 139.525C27.407 139.402 27.7135 139.341 28.0549 139.341C28.3996 139.341 28.7037 139.402 28.9672 139.523C29.2324 139.644 29.4412 139.81 29.5936 140.022C29.7461 140.233 29.8256 140.475 29.8323 140.748H29.0915Z" fill="white"/>
<g filter="url(#filter2_d_237_339)">
<path d="M180 14H11.25C7.79823 14 5 16.7982 5 20.25V51.5001C5 54.9519 7.79823 57.7501 11.25 57.7501H180C183.452 57.7501 186.25 54.9519 186.25 51.5001V20.25C186.25 16.7982 183.452 14 180 14Z" fill="#FF7360"/>
</g>
<path d="M101.25 23.7505H68.7495C66.6784 23.7505 64.9995 25.4294 64.9995 27.5005C64.9995 29.5716 66.6784 31.2505 68.7495 31.2505H101.25C103.321 31.2505 105 29.5716 105 27.5005C105 25.4294 103.321 23.7505 101.25 23.7505Z" fill="white"/>
<path d="M123.75 40.0009H68.7495C66.6784 40.0009 64.9995 41.6798 64.9995 43.7509C64.9995 45.822 66.6784 47.5009 68.7495 47.5009H123.75C125.821 47.5009 127.5 45.822 127.5 43.7509C127.5 41.6798 125.821 40.0009 123.75 40.0009Z" fill="white"/>
<path d="M43.1253 47.5008C49.6837 47.5008 55.0003 42.1841 55.0003 35.6257C55.0003 29.0673 49.6837 23.7507 43.1253 23.7507C36.5669 23.7507 31.2502 29.0673 31.2502 35.6257C31.2502 42.1841 36.5669 47.5008 43.1253 47.5008Z" fill="white"/>
<path d="M38.5878 38.0009H37.7724L39.6044 32.91H40.4919L42.3239 38.0009H41.5086L40.0693 33.8347H40.0295L38.5878 38.0009ZM38.7245 36.0073H41.3694V36.6536H38.7245V36.0073ZM43.4891 38.0009H42.6738L44.5058 32.91H45.3932L47.2253 38.0009H46.4099L44.9707 33.8347H44.9309L43.4891 38.0009ZM43.6258 36.0073H46.2707V36.6536H43.6258V36.0073Z" fill="white"/>
<defs>
<filter id="filter0_d_237_339" x="56.7485" y="65.5002" width="191.25" height="53.7501" filterUnits="userSpaceOnUse" color-interpolation-filters="sRGB">
<feFlood flood-opacity="0" result="BackgroundImageFix"/>
<feColorMatrix in="SourceAlpha" type="matrix" values="0 0 0 0 0 0 0 0 0 0 0 0 0 0 0 0 0 0 127 0" result="hardAlpha"/>
<feOffset dx="3" dy="3"/>
<feGaussianBlur stdDeviation="2.5"/>
<feColorMatrix type="matrix" values="0 0 0 0 0.230539 0 0 0 0 0.370572 0 0 0 0 0.482993 0 0 0 0.1 0"/>
<feBlend mode="normal" in2="BackgroundImageFix" result="effect1_dropShadow_237_339"/>
<feBlend mode="normal" in="SourceGraphic" in2="effect1_dropShadow_237_339" result="shape"/>
</filter>
<filter id="filter1_d_237_339" x="0" y="119.25" width="191.25" height="53.7501" filterUnits="userSpaceOnUse" color-interpolation-filters="sRGB">
<feFlood flood-opacity="0" result="BackgroundImageFix"/>
<feColorMatrix in="SourceAlpha" type="matrix" values="0 0 0 0 0 0 0 0 0 0 0 0 0 0 0 0 0 0 127 0" result="hardAlpha"/>
<feOffset dy="3"/>
<feGaussianBlur stdDeviation="2.5"/>
<feColorMatrix type="matrix" values="0 0 0 0 0.230539 0 0 0 0 0.370572 0 0 0 0 0.482993 0 0 0 0.1 0"/>
<feBlend mode="normal" in2="BackgroundImageFix" result="effect1_dropShadow_237_339"/>
<feBlend mode="normal" in="SourceGraphic" in2="effect1_dropShadow_237_339" result="shape"/>
</filter>
<filter id="filter2_d_237_339" x="0" y="12" width="191.25" height="53.7501" filterUnits="userSpaceOnUse" color-interpolation-filters="sRGB">
<feFlood flood-opacity="0" result="BackgroundImageFix"/>
<feColorMatrix in="SourceAlpha" type="matrix" values="0 0 0 0 0 0 0 0 0 0 0 0 0 0 0 0 0 0 127 0" result="hardAlpha"/>
<feOffset dy="3"/>
<feGaussianBlur stdDeviation="2.5"/>
<feColorMatrix type="matrix" values="0 0 0 0 0.230539 0 0 0 0 0.370572 0 0 0 0 0.482993 0 0 0 0.1 0"/>
<feBlend mode="normal" in2="BackgroundImageFix" result="effect1_dropShadow_237_339"/>
<feBlend mode="normal" in="SourceGraphic" in2="effect1_dropShadow_237_339" result="shape"/>
</filter>
</defs>
</svg>
